
<svg xmlns="http://www.w3.org/2000/svg" style="fill-rule:evenodd;" viewBox="0 0 250 250">
 <g id="Layer_x0020_1">
  <path fill="currentColor" d="M205.81 25.89c23.69,0 42.9,19.21 42.9,42.9 0,23.69 -19.21,42.9 -42.9,42.9 -23.69,0 -42.9,-19.21 -42.9,-42.9 0,-23.69 19.21,-42.9 42.9,-42.9zm-6.79 16.62l13.58 0 0 19.49 19.48 0 0 13.58 -19.48 0 0 19.48 -13.58 0 0 -19.48 -19.49 0 0 -13.58 19.49 0 0 -19.49zm-156.9 89.49c-0.01,-0.07 -0.02,-0.14 -0.04,-0.21l-14.25 -85.54c-1.41,-8.46 -8.73,-14.65 -17.29,-14.65l-3.57 0c-3.23,0 -5.85,-2.62 -5.85,-5.85 0,-3.23 2.62,-5.84 5.85,-5.84l3.57 0c13.93,0 25.86,9.82 28.62,23.37l122.25 0c-2.09,3.64 -3.75,7.56 -4.9,11.69l-115.38 0 11.69 70.11 148.4 0 1.48 -5.2c1.03,0.07 2.07,0.1 3.11,0.1 3.16,0 6.25,-0.29 9.25,-0.84l-3.82 13.39c-0.72,2.51 -3.01,4.24 -5.62,4.24l-150.86 0 1.46 8.72c1.41,8.46 8.72,14.65 17.29,14.65l132.12 0c3.22,0 5.84,2.62 5.84,5.85 0,3.23 -2.62,5.84 -5.84,5.84l-132.12 0c-14.28,0 -26.47,-10.33 -28.82,-24.41l-2.57 -15.42zm29.12 98.26c-12.91,0 -23.37,-10.46 -23.37,-23.37 0,-12.91 10.46,-23.38 23.37,-23.38 12.91,0 23.37,10.47 23.37,23.38 0,12.91 -10.46,23.37 -23.37,23.37zm0 -11.69c6.45,0 11.68,-5.23 11.68,-11.68 0,-6.46 -5.23,-11.69 -11.68,-11.69 -6.45,0 -11.69,5.23 -11.69,11.69 0,6.45 5.24,11.68 11.69,11.68zm105.17 11.69c-12.91,0 -23.37,-10.46 -23.37,-23.37 0,-12.91 10.46,-23.38 23.37,-23.38 12.91,0 23.37,10.47 23.37,23.38 0,12.91 -10.46,23.37 -23.37,23.37zm0 -11.69c6.45,0 11.69,-5.23 11.69,-11.68 0,-6.46 -5.24,-11.69 -11.69,-11.69 -6.45,0 -11.69,5.23 -11.69,11.69 0,6.45 5.24,11.68 11.69,11.68z"/>
 </g>
</svg>
