<svg xmlns="http://www.w3.org/2000/svg" viewBox="0 0 250 250">
    <g id="Layer_x0020_1">
        <path fill="currentColor" d="M47 132.42c-0.01,-0.05 -0.02,-0.1 -0.03,-0.15l0 -0.03 -14.13 -84.76c-1.17,-7 -7.23,-12.12 -14.33,-12.13l-3.53 0c-4.76,-0.01 -8.62,-3.86 -8.62,-8.63 0,-4.76 3.86,-8.62 8.62,-8.62l3.54 0c14.31,0 26.76,9.55 30.58,23.14l185.74 0c2.73,0 5.26,1.27 6.89,3.44 1.64,2.17 2.15,4.94 1.41,7.55l-23.15 81.01c-1.06,3.7 -4.44,6.25 -8.29,6.25l-146.04 0 0.89 5.34c1.17,7 7.23,12.13 14.33,12.13l130.82 0.01c4.77,0 8.63,3.86 8.63,8.62 0,4.76 -3.86,8.62 -8.63,8.62l-130.82 0c-15.53,0 -28.79,-11.23 -31.34,-26.55l-2.54 -15.24zm135.77 88.47c7.06,0 12.79,-5.72 12.79,-12.79 0,-7.06 -5.73,-12.79 -12.79,-12.79 -7.06,0 -12.79,5.73 -12.79,12.79 0,7.07 5.73,12.79 12.79,12.79zm-104.14 0c7.06,0 12.79,-5.72 12.79,-12.79 0,-7.06 -5.73,-12.79 -12.79,-12.79 -7.06,0 -12.79,5.73 -12.79,12.79 0,7.07 5.73,12.79 12.79,12.79zm0 13.2c-14.35,0 -25.98,-11.64 -25.98,-25.99 0,-14.35 11.63,-25.98 25.98,-25.98 14.35,0 25.98,11.63 25.98,25.98 0,14.35 -11.63,25.99 -25.98,25.99zm104.14 0c-14.35,0 -25.98,-11.64 -25.98,-25.99 0,-14.35 11.63,-25.98 25.98,-25.98 14.35,0 25.98,11.63 25.98,25.98 0,14.35 -11.63,25.99 -25.98,25.99zm-130.61 -175.6l10.63 63.76 142.41 0 18.22 -63.76 -171.26 0z"/>
    </g>
</svg>
