<svg xmlns="http://www.w3.org/2000/svg" style="fill-rule:evenodd; clip-rule:evenodd" viewBox="0 0 250 250">
    <g id="Layer_x0020_1">
        <path fill="currentColor" d="M93.47 18.62l0 -6.24c0.26,-6.23 5.78,-11.66 12.15,-11.66l39.4 0c6.75,0 12.21,5.43 12.21,12.19l0 5.71 65.11 0c5.78,0 9.56,4.43 9.56,10.04l0 20.06c0,2.9 -2.36,5.26 -5.27,5.26 -67.81,0 -135.61,0 -203.41,0 -2.89,0 -5.27,-2.32 -5.27,-5.2l0 -20.53c-0.14,-6.01 5.05,-9.64 10.65,-9.64 21.59,0 43.25,0.01 64.87,0.01zm117.04 56.7c3.77,-0.13 7.17,0.78 9.93,3.49 2.83,2.71 3.72,6.03 3.22,9.73l-14.47 149.84c-0.58,6.06 -5.69,10.94 -11.53,11.07l-144.47 0c-6.02,-0.3 -10.7,-5.22 -11.17,-11.29l-14.24 -149.52c-0.55,-3.8 0.27,-7.28 3.19,-10.07 2.6,-2.53 5.7,-3.49 9.24,-3.49 56.76,0 113.54,0.16 170.3,0.24zm-139.52 49.92c-0.37,-5.87 2.87,-9.12 10.06,-9.12 4.76,0 8.75,3.58 9.27,8.31l4.06 75.27c-0.01,5.83 -4.62,9.12 -10.1,9.12 -4.75,0 -8.74,-3.58 -9.24,-8.3l-4.05 -75.28zm90.11 -0.81c0.55,-5.08 5.1,-8.76 10.17,-8.26 5.04,-0.07 9.17,4.05 9.18,9.07l-4.07 75.28c-0.51,4.72 -4.5,8.3 -9.25,8.3 -5.47,0 -10.09,-3.29 -10.1,-9.12l4.07 -75.27zm-45.05 0.41c0.51,-4.95 4.68,-8.72 9.66,-8.72 4.97,0 9.14,3.77 9.65,8.72l0 75.27c-0.51,4.95 -4.68,8.71 -9.65,8.71 -4.98,0 -9.15,-3.76 -9.66,-8.71l0 -75.27z"/>
    </g>
</svg>
