<svg xmlns="http://www.w3.org/2000/svg" viewBox="0 0 250 250">
    <g id="Layer_x0020_1">
        <path fill="currentColor" d="M43.81 131.15c2.57,3.58 20.76,10.79 25.19,11.45 12.04,1.78 20.19,3.73 32.62,3.73 0,3.36 -0.43,4.86 1.16,7.89 3.54,6.75 21.29,42.15 21.76,42.33 1.88,-0.01 23.29,-42.17 23.62,-45.86 0.12,-1.32 -0.18,-3.35 0.17,-4.51 7.18,0 19.96,-1.86 26.3,-4.06 7.85,-2.72 20.9,-6.04 27.31,-10.66 0.98,-0.71 -1.6,-3.78 -2.21,-4.56 -7.57,-9.63 -13.19,-16.65 -16.49,-29.05 -2.61,-9.84 -2.68,-17.16 -2.91,-27.17 -0.23,-10.04 0.6,-18.46 -1.49,-28.58 -2.28,-11.07 -8.18,-22.08 -19.05,-26.49 -6.17,-2.51 -7.37,-1.39 -13.08,-1.89 -3.08,-0.27 -3.15,-4.57 -7.26,-7.39 -8.82,-6.09 -29.02,-3.29 -38.24,0.04 -14.56,5.28 -24.53,16.94 -29.42,31.45 -2.79,8.28 -4.09,16.97 -4.7,25.67 -0.66,9.47 -0.1,18.93 -1.74,28.32 -1.39,7.97 -2.61,16.56 -6.69,23.68 -4.61,8.03 -8.25,9.95 -14.85,15.66zm81.31 87.73c-1.5,-1.16 -15.14,-29.38 -19.01,-36.17 -2.59,-4.56 -1.03,-4.56 -6.53,-4.56 -7.4,0 -14.8,0 -22.19,0 3.28,-7.04 7.71,-14.81 10.66,-21.71 0.99,-2.31 0.85,-3.74 -2.64,-2.68 -10.8,3.28 -21.81,7.15 -32.59,10.62 -9.89,3.18 -18.78,9.55 -23.93,18.7 -5.73,10.17 -3.85,26.66 -3.82,38.46 0.02,5.21 -0.87,15.07 1.64,19.42 3.23,5.63 10.85,4.9 16.42,4.81 22.13,-0.34 176.32,7.03 180.9,-6.82 1.33,-4.02 0.66,-15.24 0.71,-20.1 0.14,-12.25 1.97,-26.89 -4.59,-37.48 -5.88,-9.5 -14.42,-14.71 -24.89,-17.88 -9.59,-2.97 -22.47,-7.99 -31.81,-10.11 -2.42,-0.55 -3.62,0.09 -1.45,4.21l10.28 20.08 -24.15 0.14c-2.41,0.06 -1.78,0.27 -2.97,2.28 -5.01,8.42 -16.48,35.22 -20.04,38.79z"/>
    </g>
</svg>
