<svg xmlns="http://www.w3.org/2000/svg" viewBox="0 0 250 250">
    <g id="Layer_x0020_1">
        <path fill="currentColor" d="M16.66 50.18l216.52 0c8.44,0 15.34,6.91 15.34,15.35l0 0c0,8.44 -6.9,15.34 -15.34,15.34l-216.52 0c-8.45,0 -15.35,-6.9 -15.35,-15.34l0 0c0,-8.44 6.9,-15.35 15.35,-15.35zm33.69 61.76l149.13 0c8.08,0 14.68,6.6 14.68,14.67l0 0c0,8.08 -6.6,14.68 -14.68,14.68l-149.13 0c-8.08,0 -14.68,-6.6 -14.68,-14.68l0 0c0,-8.07 6.6,-14.67 14.68,-14.67zm50.86 61.76l47.41 0c7.7,0 14,6.3 14,14l0 0c0,7.7 -6.3,14 -14,14l-47.41 0c-7.7,0 -14,-6.3 -14,-14l0 0c0,-7.7 6.3,-14 14,-14z"/>
    </g>
</svg>
