<svg xmlns="http://www.w3.org/2000/svg" viewBox="0 0 250 250">
    <g id="Layer_x0020_1">
        <path class="fil0" d="M28.94 192.2c0,22.16 -5.02,56.26 9.93,56.26l172.1 0c14.94,0 9.92,-34.1 9.92,-56.26 0,-22.52 -26.53,-51.3 -52.95,-51.3 -0.56,6.76 -4.07,11.44 -6.62,16.55 -3.21,6.45 -4.1,10.99 -9.93,14.89 -5.27,-3.53 -13.08,-13.07 -14.89,-19.86 -9.46,0.21 -5.42,0.84 -11.58,4.97 -4.81,-3.22 -2.23,-3.35 -8.28,-4.97 -8.76,5.87 -9.65,14.8 -16.55,19.86 -8.31,-2.22 -16.31,-23.33 -18.2,-31.44 -26.37,0 -52.95,28.71 -52.95,51.3zm94.4 37c2.87,0 5.2,2.33 5.2,5.2 0,2.86 -2.33,5.19 -5.2,5.19 -2.87,0 -5.19,-2.33 -5.19,-5.19 0,-2.87 2.32,-5.2 5.19,-5.2zm0 -27.34c2.87,0 5.2,2.33 5.2,5.2 0,2.86 -2.33,5.19 -5.2,5.19 -2.87,0 -5.19,-2.33 -5.19,-5.19 0,-2.87 2.32,-5.2 5.19,-5.2zm0 -27.34c2.87,0 5.2,2.33 5.2,5.2 0,2.87 -2.33,5.19 -5.2,5.19 -2.87,0 -5.19,-2.32 -5.19,-5.19 0,-2.87 2.32,-5.2 5.19,-5.2zm-62.96 -133.1c2.37,2.74 2.23,3.8 6.62,4.97 -0.87,3.7 -1.48,4.88 -2.17,9.48 -1.3,8.76 0.51,2.38 0.51,8.72 0,1.23 0.07,3.04 0.18,5.38 -4.07,4.09 -6.64,10.11 -6.64,16.82 0,8.63 4.27,16.12 10.5,19.84 6.66,14.07 17.61,38.9 58.85,37.58 26.21,-0.84 38.21,-13.75 48.05,-35.82 8.33,-2.52 14.64,-13.97 14.64,-21.6 0,-7.64 -1.37,-9.44 -3.7,-13.13 0.44,-1.05 0.92,-2.16 1.45,-3.32 -1.47,-4.57 -0.87,-10.53 -0.83,-15.72 0.24,-27.51 -10.62,-35.85 -26.27,-41.58 -9.93,-7.96 -17.21,-10.58 -25.58,-11.33l-24.31 0c-24.62,0 -41.37,20.93 -51.3,39.71z"/>
    </g>
</svg>
