<?xml version="1.0" encoding="UTF-8"?>
<!DOCTYPE svg PUBLIC "-//W3C//DTD SVG 1.1//EN" "http://www.w3.org/Graphics/SVG/1.1/DTD/svg11.dtd">
<!-- Creator: CorelDRAW 2019 (64-Bit) -->
<svg xmlns="http://www.w3.org/2000/svg" xml:space="preserve" width="250px" height="250px" version="1.1" style="shape-rendering:geometricPrecision; text-rendering:geometricPrecision; image-rendering:optimizeQuality; fill-rule:evenodd; clip-rule:evenodd"
viewBox="0 0 250 250"
 xmlns:xlink="http://www.w3.org/1999/xlink">
 <defs>
  <style type="text/css">
   <![CDATA[
    .fil0 {fill:url(#id0)}
    .fil1 {fill:url(#id1)}
   ]]>
  </style>
  <linearGradient id="id0" gradientUnits="userSpaceOnUse" x1="18.77" y1="206.25" x2="184.76" y2="98.45">
   <stop offset="0" style="stop-opacity:1; stop-color:#74FCD1"/>
   <stop offset="0.478431" style="stop-opacity:1; stop-color:#0C70CD"/>
   <stop offset="1" style="stop-opacity:1; stop-color:#0C007C"/>
  </linearGradient>
  <linearGradient id="id1" gradientUnits="userSpaceOnUse" x1="113.49" y1="185.94" x2="234.77" y2="83.87">
   <stop offset="0" style="stop-opacity:1; stop-color:#DEDEDE"/>
   <stop offset="0.160784" style="stop-opacity:1; stop-color:#AAABAD"/>
   <stop offset="1" style="stop-opacity:1; stop-color:#58585A"/>
  </linearGradient>
 </defs>
 <g id="Layer_x0020_1">
  <metadata id="CorelCorpID_0Corel-Layer"/>
  <g id="_2246908212368">
   <path class="fil0" d="M197.68 27.61c-24.28,-29.69 -90.11,-29.43 -123.96,-14.03 -37.08,16.87 -62.57,51.37 -69.27,91.22 -10.8,64.22 32.88,128.47 97.49,140.28 29.21,5.34 72.65,-1.03 95.55,-21.43l-14.09 -19.45c-29.75,13.62 -62.3,20.88 -93.72,8.01 -44.88,-18.37 -64.98,-63.79 -57.7,-104.96 4.73,-26.7 20.97,-51.61 49.45,-66.2 29.81,-15.26 66.41,-14.21 94.93,3.73l21.32 -17.17z"/>
   <path class="fil1" d="M145.02 66.49c-4.79,-3.21 -16.92,-16.04 -21.08,-17.66 -36.28,52.95 -31.23,115.01 -1.56,149.44l20.12 -19.29c-12.01,-16.72 -15.66,-29.31 -15.52,-41.7l91.68 -0.06c0.67,14.89 -7.81,25.63 -16.26,43.77l19.56 16.36c34.25,-47.14 32.63,-96.09 -0.16,-147.19l-21.02 15.29c8.69,13.7 16.5,24.56 17.1,44l-90.78 0.13c0.16,-19.17 8.56,-33.59 17.92,-43.09z"/>
  </g>
 </g>
</svg>
