<svg xmlns="http://www.w3.org/2000/svg" viewBox="0 0 250 250">
    <g id="Layer_x0020_1">
        <path fill="currentColor" d="M197.68 27.61c-24.28,-29.69 -90.11,-29.43 -123.96,-14.03 -37.08,16.87 -62.57,51.37 -69.27,91.22 -10.8,64.22 32.88,128.47 97.49,140.28 29.21,5.34 72.65,-1.03 95.55,-21.43l-14.09 -19.45c-29.75,13.62 -62.3,20.88 -93.72,8.01 -44.88,-18.37 -64.98,-63.79 -57.7,-104.96 4.73,-26.7 20.97,-51.61 49.45,-66.2 29.81,-15.26 66.41,-14.21 94.93,3.73l21.32 -17.17zm-52.66 38.88c-4.79,-3.21 -16.92,-16.04 -21.08,-17.66 -36.28,52.95 -31.23,115.01 -1.56,149.44l20.12 -19.29c-12.01,-16.72 -15.66,-29.31 -15.52,-41.7l91.68 -0.06c0.67,14.89 -7.81,25.63 -16.26,43.77l19.56 16.36c34.25,-47.14 32.63,-96.09 -0.16,-147.19l-21.02 15.29c8.69,13.7 16.5,24.56 17.1,44l-90.78 0.13c0.16,-19.17 8.56,-33.59 17.92,-43.09z"/>
    </g>
</svg>
