<svg xmlns="http://www.w3.org/2000/svg" viewBox="0 0 250 250">
    <g id="Layer_x0020_1">
        <path fill="currentColor" d="M90.41 141.05c-12.7,4.16 -24.87,6.19 -37.42,10.91 -12.54,4.72 -22.54,8.64 -25.39,23.12 -2.71,13.71 -4.84,29.4 -5.06,43.34 -0.1,6.54 -1.18,15.88 2.8,21.39 4.5,6.23 10.13,6.93 17.34,6.92 32.38,-0.07 64.77,-0.07 97.15,-0.07 16.16,0 32.33,-0.03 48.49,0.01 7.22,0.02 17.24,0.58 24.11,-0.14 6.23,-0.66 11.89,-4.21 13.89,-10.37 2.79,-8.61 -0.07,-35.31 -1.57,-45.15 -2.09,-13.75 -1.8,-25.59 -15.12,-33.39 -11.04,-6.47 -23.73,-9.42 -36.03,-12.42 -3.19,-0.78 -6.34,-1.66 -9.46,-2.67 -4.83,-1.57 -4.34,-2.62 -7.01,1.94 -2.91,4.95 -6.07,10.25 -9.22,15.03 -3.12,4.74 -6.3,10.14 -9.25,15.03 -1.75,2.9 -3.03,7.34 -3.37,0.22 -0.15,-3 -0.78,-7.94 -1.32,-10.91 -1.11,-6.12 2.36,-4.09 3.07,-8.36 0.55,-3.35 0.04,-6.93 -3.28,-8.6 -2.33,-1.16 -8.56,-0.7 -11.42,-0.74 -3.35,-0.06 -7.02,-0.09 -8.87,3.26 -1.59,2.89 -1.21,7.01 1.27,9.31 2.34,2.17 0.88,6.62 0.51,9.72 -1.4,11.57 -0.14,12.98 -6.33,2.61 -3.01,-5.04 -6.22,-9.97 -9.22,-15.02 -2.78,-4.67 -6.08,-10.76 -9.29,-14.97zm34.38 -8.1c18.98,0 33.27,-17.7 37.29,-34.82 1.22,-5.21 0.62,-9.07 5.11,-12.82 4.27,-3.57 5.86,-4.7 7.79,-10.23 2.61,-7.48 0.97,-7.77 -2.66,-13.26 -2.07,-3.14 0.51,-10.74 0.52,-15.09l-0.03 -4.22c0,-10.99 -5.09,-21.42 -13.28,-28.62 -9.35,-8.21 -19.25,-10.57 -31.47,-10.59 -10.12,-0.02 -19.07,-0.55 -28.42,4.31 -6.69,3.47 -11.64,7.27 -16.02,13.46 -5.04,7.14 -6.72,14 -6.82,22.66 -0.06,5.82 0.81,8.42 1.33,13.76 0.5,5.11 -2.87,5.45 -4.25,9.41 -1.2,3.44 0.58,8.57 2.28,11.65 2.38,4.32 4.02,4.51 7.21,7.54 3.08,2.92 3.15,6.83 3.93,10.73 0.73,3.62 2.24,7.71 3.72,11.1 5.77,13.28 18.62,25.03 33.77,25.03z"/>
    </g>
</svg>
