<svg xmlns="http://www.w3.org/2000/svg" style="fill-rule:evenodd; clip-rule:evenodd" viewBox="0 0 250 250">
    <g id="Layer_x0020_1">
        <path fill="currentColor" d="M2.32 122.67c-3.76,8.33 9,15.94 14.93,22.7 7.38,8.44 10.95,9.14 9.16,21.37 -0.73,4.97 -3.13,24.98 -1.82,28.7 2.21,6.24 16.52,7.69 22.73,9.23 11.28,2.81 15.59,-0.04 21.37,10.36 3.65,6.58 8.5,13.28 12.09,19.86 6.29,11.53 11.05,7.34 20.97,3.39 4.79,-1.91 18.73,-8.87 22.47,-9.45 10.42,-1.62 36.08,23.52 44.66,7.71 3.58,-6.62 7.93,-13.83 11.86,-20.29 7.75,-12.73 6.85,-8.07 20.28,-11.56 6.06,-1.57 21.53,-3.15 24.1,-8.23 2.02,-3.99 -0.28,-23.29 -0.89,-28.72 -1.84,-16.35 0.64,-11.11 8.94,-21.93 4.78,-6.22 13.41,-12.22 15.02,-17.15 0,-11.47 -7.4,-15.08 -14.97,-23.76 -7.32,-8.41 -11.21,-8.73 -9.38,-20.97 0.77,-5.19 3.08,-25.24 1.89,-29.26 -1.73,-5.82 -17.45,-8.11 -23.04,-9.16 -11.12,-2.09 -15.65,-0.78 -21.39,-10.84 -3.89,-6.84 -8.16,-13.35 -11.82,-20.4 -5.61,-10.84 -13.09,-5.65 -21.08,-1.98 -3.56,1.64 -20.11,9.06 -22.77,9.21 -3.4,0.2 -18.44,-7.08 -22.9,-8.83 -7.85,-3.09 -15.88,-9.44 -21.64,1.17 -3.73,6.88 -8.27,13.56 -11.88,20.29 -6.47,12.06 -8.2,8.47 -21.03,11.27 -5.81,1.27 -21.01,3.05 -23.28,8.89 -1.42,3.64 0.78,23.99 1.43,29 1.78,13.82 -1.48,12.39 -9.36,21.8 -4.66,5.56 -10.58,11.83 -14.65,17.58zm86.12 25.66l-26.76 -11.47 -10.79 6.56 23.71 38.97 10.84 -6.59 -12.34 -20.28 26.73 11.53 10.84 -6.6 -23.71 -38.97 -10.84 6.59 12.32 20.26zm5.24 -30.94l23.71 38.97 28.24 -17.18 -6.6 -10.84 -17.39 10.58 -1.96 -3.22 17.39 -10.58 -6.59 -10.85 -17.4 10.59 -1.98 -3.25 17.4 -10.59 -6.58 -10.81 -28.24 17.18zm74.8 -25.83l-12.02 -12.36 -9.58 5.82 5.43 16.37 -12.01 -12.36 -11.65 7.09 32.64 33.53 10.65 -6.48 -5.28 -16.68 10.79 13.33 12 -7.3 -14.22 -44.74 -12.18 7.41 5.43 16.37z"/>
    </g>
</svg>
