<svg xmlns="http://www.w3.org/2000/svg" viewBox="0 0 250 250">
  <g id="Layer_x0020_1">
  <path fill="currentColor" d="M130.77 11.37l33.53 66.1c0.99,1.94 2.69,3.17 4.84,3.51l73.23 11.47c2.5,0.39 4.44,2.04 5.22,4.45 0.79,2.41 0.19,4.89 -1.61,6.68l-52.5 52.32c-1.54,1.54 -2.19,3.54 -1.84,5.69l11.72 73.18c0.4,2.5 -0.58,4.86 -2.63,6.35 -2.05,1.49 -4.59,1.69 -6.84,0.53l-65.99 -33.76c-1.93,-0.99 -4.04,-0.99 -5.97,0l-65.99 33.76c-2.25,1.16 -4.79,0.96 -6.84,-0.53 -2.05,-1.49 -3.03,-3.85 -2.63,-6.35l11.73 -73.18c0.34,-2.15 -0.31,-4.15 -1.85,-5.69l-52.5 -52.32c-1.8,-1.79 -2.4,-4.27 -1.61,-6.68 0.78,-2.41 2.72,-4.06 5.22,-4.45l73.23 -11.47c2.15,-0.34 3.85,-1.57 4.84,-3.51l33.53 -66.1c1.15,-2.26 3.32,-3.6 5.86,-3.6 2.53,0 4.7,1.34 5.85,3.6z"/>
 </g>
</svg>
