<svg xmlns="http://www.w3.org/2000/svg" style="fill-rule:evenodd;" viewBox="0 0 250 250">
 <g id="Layer_x0020_1">
  <path fill="currentColor" d="M124.91 16.93c6.85,0 13.18,3.62 16.65,9.56l104.29 177.68c3.53,5.99 3.53,13.37 0.1,19.36 -3.43,5.99 -9.85,9.71 -16.75,9.71l-208.58 0c-6.91,0 -13.33,-3.72 -16.76,-9.71 -3.42,-5.99 -3.38,-13.42 0.1,-19.36l104.29 -177.68c3.48,-5.94 9.8,-9.56 16.66,-9.56zm0 61.8c-6.43,0 -11.59,5.17 -11.59,11.59l0 54.08c0,6.42 5.16,11.59 11.59,11.59 6.42,0 11.58,-5.17 11.58,-11.59l0 -54.08c0,-6.42 -5.16,-11.59 -11.58,-11.59l0 0zm15.45 108.16c0,-8.54 -6.92,-15.45 -15.45,-15.45 -8.53,0 -15.45,6.91 -15.45,15.45 0,8.53 6.92,15.45 15.45,15.45 8.53,0 15.45,-6.92 15.45,-15.45l0 0z"/>
 </g>
</svg>
