<?xml version="1.0" encoding="UTF-8"?>
<!DOCTYPE svg PUBLIC "-//W3C//DTD SVG 1.1//EN" "http://www.w3.org/Graphics/SVG/1.1/DTD/svg11.dtd">
<!-- Creator: CorelDRAW 2019 (64-Bit) -->
<svg xmlns="http://www.w3.org/2000/svg" xml:space="preserve" width="250px" height="250px" version="1.1" style="shape-rendering:geometricPrecision; text-rendering:geometricPrecision; image-rendering:optimizeQuality; fill-rule:evenodd; clip-rule:evenodd"
viewBox="0 0 250 250"
 xmlns:xlink="http://www.w3.org/1999/xlink">
 <defs>
  <style type="text/css">
   <![CDATA[
    .str0 {stroke:black;stroke-width:0.24;stroke-miterlimit:22.9256}
    .fil2 {fill:none}
    .fil1 {fill:black}
    .fil4 {fill:#215AAA}
    .fil9 {fill:#242950}
    .fil12 {fill:#282E54}
    .fil11 {fill:#BDBEC1}
    .fil5 {fill:#C9EAF5}
    .fil10 {fill:black;fill-rule:nonzero}
    .fil0 {fill:url(#id11)}
    .fil8 {fill:url(#id12)}
    .fil3 {fill:url(#id13)}
    .fil7 {fill:url(#id14)}
    .fil6 {fill:url(#id15)}
    .fil13 {fill:url(#id16);fill-rule:nonzero}
   ]]>
  </style>
   <clipPath id="id0">
    <path d="M31.54 0.08l186.75 0c17.39,0 31.63,14.24 31.63,31.63l0 186.75c0,17.39 -14.24,31.62 -31.63,31.62l-186.75 0c-17.39,0 -31.62,-14.23 -31.62,-31.62l0 -186.75c0,-17.39 14.23,-31.63 31.62,-31.63z"/>
   </clipPath>
     <mask id="id1">
  <linearGradient id="id2" gradientUnits="userSpaceOnUse" x1="231.31" y1="126.47" x2="132.94" y2="242.96">
   <stop offset="0" style="stop-opacity:0.301961; stop-color:white"/>
   <stop offset="1" style="stop-opacity:0.101961; stop-color:white"/>
  </linearGradient>
      <rect style="fill:url(#id2)" x="54.67" y="72.65" width="231.59" height="211.97"/>
     </mask>
   <clipPath id="id3">
    <path d="M152.29 91l59.32 0c3.43,0 6.33,2.26 7.17,5.6l6.89 27.42 6.11 3.68c2.88,1.73 4.49,4.95 3.69,8.21l-5.67 22.85 -4.44 10.23 -73.07 0.12 0 -78.11z"/>
   </clipPath>
     <mask id="id4">
  <linearGradient id="id5" gradientUnits="userSpaceOnUse" x1="166.82" y1="160.67" x2="185.07" y2="66.02">
   <stop offset="0" style="stop-opacity:1; stop-color:white"/>
   <stop offset="0.709804" style="stop-opacity:-127.502; stop-color:white"/>
   <stop offset="1" style="stop-opacity:0; stop-color:white"/>
  </linearGradient>
      <rect style="fill:url(#id5)" x="159.79" y="87.11" width="27.02" height="74.14"/>
     </mask>
   <clipPath id="id6">
    <path d="M81.67 71.98l96.9 0c3.95,0 6.51,3.23 5.69,7.17l-14.98 72.39c-0.82,3.94 -4.71,7.17 -8.66,7.17l-53 0 0 10.4 -36.05 0 0 -10.4 -7.85 0c-3.95,0 -6.51,-3.23 -5.69,-7.17l14.98 -72.39c0.82,-3.94 4.71,-7.17 8.66,-7.17z"/>
   </clipPath>
     <mask id="id7">
  <linearGradient id="id8" gradientUnits="userSpaceOnUse" x1="66.35" y1="134.67" x2="217.34" y2="153.37">
   <stop offset="0" style="stop-opacity:1; stop-color:white"/>
   <stop offset="1" style="stop-opacity:0; stop-color:white"/>
  </linearGradient>
      <rect style="fill:url(#id8)" x="36.25" y="100.65" width="152.35" height="94.69"/>
     </mask>
   <mask id="id9">
  <linearGradient id="id10" gradientUnits="userSpaceOnUse" x1="113.11" y1="134.67" x2="120.29" y2="86.55">
   <stop offset="0" style="stop-opacity:0.301961; stop-color:white"/>
   <stop offset="1" style="stop-opacity:0.101961; stop-color:white"/>
  </linearGradient>
    <rect style="fill:url(#id10)" x="96.88" y="98.08" width="48.69" height="38.13"/>
   </mask>
  <linearGradient id="id11" gradientUnits="userSpaceOnUse" x1="-0.08" y1="125.08" x2="249.92" y2="125.08">
   <stop offset="0" style="stop-opacity:1; stop-color:#D7D2CE"/>
   <stop offset="1" style="stop-opacity:1; stop-color:#C9BBB3"/>
  </linearGradient>
  <linearGradient id="id12" gradientUnits="userSpaceOnUse" x1="36.25" y1="147.99" x2="188.6" y2="147.99">
   <stop offset="0" style="stop-opacity:1; stop-color:#2861CA"/>
   <stop offset="1" style="stop-opacity:1; stop-color:#2A6FD1"/>
  </linearGradient>
  <linearGradient id="id13" gradientUnits="userSpaceOnUse" x1="201.05" y1="168.56" x2="186.92" y2="91.55">
   <stop offset="0" style="stop-opacity:1; stop-color:#287EDD"/>
   <stop offset="1" style="stop-opacity:1; stop-color:#2C9AEC"/>
  </linearGradient>
  <linearGradient id="id14" gradientUnits="userSpaceOnUse" x1="163.35" y1="82.34" x2="78.94" y2="158.75">
   <stop offset="0" style="stop-opacity:1; stop-color:#2DADF7"/>
   <stop offset="0.470588" style="stop-opacity:1; stop-color:#2DADF7"/>
   <stop offset="1" style="stop-opacity:1; stop-color:#2C83DF"/>
  </linearGradient>
  <linearGradient id="id15" gradientUnits="userSpaceOnUse" x1="44.76" y1="85.8" x2="73.03" y2="129.11">
   <stop offset="0" style="stop-opacity:1; stop-color:#FFA000"/>
   <stop offset="1" style="stop-opacity:1; stop-color:#FF0062"/>
  </linearGradient>
  <linearGradient id="id16" gradientUnits="userSpaceOnUse" x1="122.47" y1="95.05" x2="119.82" y2="132.9">
   <stop offset="0" style="stop-opacity:1; stop-color:#60E733"/>
   <stop offset="0.470588" style="stop-opacity:1; stop-color:#5FE532"/>
   <stop offset="1" style="stop-opacity:1; stop-color:#42B31D"/>
  </linearGradient>
 </defs>
 <g id="Layer_x0020_1">
  <metadata id="CorelCorpID_0Corel-Layer"/>
  <path class="fil0" d="M31.54 0.08l186.75 0c17.39,0 31.63,14.24 31.63,31.63l0 186.75c0,17.39 -14.24,31.62 -31.63,31.62l-186.75 0c-17.39,0 -31.62,-14.23 -31.62,-31.62l0 -186.75c0,-17.39 14.23,-31.63 31.62,-31.63z"/>
  <g style="clip-path:url(#id0)">
   <g id="_2292945655424">
    <polygon id="1" class="fil1 str0" style="mask:url(#id1)" points="54.79,168.01 253.02,284.5 286.14,131.69 181.68,72.77 "/>
   </g>
  </g>
  <path class="fil2" d="M31.54 0.08l186.75 0c17.39,0 31.63,14.24 31.63,31.63l0 186.75c0,17.39 -14.24,31.62 -31.63,31.62l-186.75 0c-17.39,0 -31.62,-14.23 -31.62,-31.62l0 -186.75c0,-17.39 14.23,-31.63 31.62,-31.63z"/>
  <path class="fil3" d="M152.29 91l59.32 0c3.43,0 6.33,2.26 7.17,5.6l6.89 27.42 6.11 3.68c2.88,1.73 4.49,4.95 3.69,8.21l-5.67 22.85 -4.44 10.23 -73.07 0.12 0 -78.11z"/>
  <g style="clip-path:url(#id3)">
   <g id="_2292945653056">
    <polygon id="1" class="fil4" style="mask:url(#id4)" points="175.74,87.23 186.69,87.23 170.86,161.13 159.91,161.13 "/>
   </g>
  </g>
  <path class="fil2" d="M152.29 91l59.32 0c3.43,0 6.33,2.26 7.17,5.6l6.89 27.42 6.11 3.68c2.88,1.73 4.49,4.95 3.69,8.21l-5.67 22.85 -4.44 10.23 -73.07 0.12 0 -78.11z"/>
  <path class="fil5" d="M183.65 122.3l4.13 -20.46c0.29,-1.39 1.48,-2.37 2.91,-2.37l17.84 0c1.1,0 2.03,0.69 2.35,1.74l7.38 24c0.14,0.46 0.06,0.91 -0.22,1.3 -0.28,0.39 -0.69,0.61 -1.17,0.61l-28.79 0.49c-1.39,0.03 -2.6,-0.53 -3.49,-1.6 -0.89,-1.06 -1.21,-2.35 -0.94,-3.71z"/>
  <path class="fil6" d="M47.73 140.06l25.07 0c2.26,0 3.55,1.85 2.86,4.11l0 0c-0.7,2.26 -3.11,4.11 -5.37,4.11l-25.08 0c-2.26,0 -3.54,-1.85 -2.85,-4.11l0 0c0.69,-2.26 3.11,-4.11 5.37,-4.11zm-5.08 -18.36l33.5 0c2.26,0 3.55,1.85 2.85,4.11l0 0c-0.69,2.26 -3.1,4.11 -5.37,4.11l-33.5 0c-2.26,0 -3.54,-1.85 -2.85,-4.11l0 0c0.69,-2.26 3.11,-4.11 5.37,-4.11zm-25.48 0l12.64 0c2.26,0 3.54,1.85 2.85,4.11l0 0c-0.69,2.26 -3.11,4.11 -5.37,4.11l-12.64 0c-2.26,0 -3.55,-1.85 -2.85,-4.11l0 0c0.69,-2.26 3.1,-4.11 5.37,-4.11zm45 -36.71l26.72 0c2.26,0 3.54,1.85 2.85,4.11l0 0c-0.69,2.26 -3.11,4.11 -5.37,4.11l-26.72 0c-2.26,0 -3.54,-1.85 -2.85,-4.11l0 0c0.69,-2.26 3.11,-4.11 5.37,-4.11zm-19.94 0l5.96 0c2.26,0 3.55,1.85 2.86,4.11l0 0c-0.7,2.26 -3.11,4.11 -5.37,4.11l-5.96 0c-2.26,0 -3.55,-1.85 -2.86,-4.11l0 0c0.7,-2.26 3.11,-4.11 5.37,-4.11zm-25.28 18.35l68.44 0c2.26,0 3.54,1.85 2.85,4.11l0 0c-0.69,2.26 -3.11,4.11 -5.37,4.11l-68.44 0c-2.26,0 -3.54,-1.85 -2.85,-4.11l0 0c0.69,-2.26 3.11,-4.11 5.37,-4.11z"/>
  <path class="fil7" d="M81.67 71.98l96.9 0c3.95,0 6.51,3.23 5.69,7.17l-14.98 72.39c-0.82,3.94 -4.71,7.17 -8.66,7.17l-53 0 0 10.4 -36.05 0 0 -10.4 -7.85 0c-3.95,0 -6.51,-3.23 -5.69,-7.17l14.98 -72.39c0.82,-3.94 4.71,-7.17 8.66,-7.17z"/>
  <g style="clip-path:url(#id6)">
   <g id="_2292945650400">
    <path id="1" class="fil8" style="mask:url(#id7)" d="M53.65 100.65c0,0 67.44,44.97 134.95,43.6l-12.77 51.09 -139.58 -10.04 17.4 -84.65z"/>
   </g>
  </g>
  <path class="fil2" d="M81.67 71.98l96.9 0c3.95,0 6.51,3.23 5.69,7.17l-14.98 72.39c-0.82,3.94 -4.71,7.17 -8.66,7.17l-53 0 0 10.4 -36.05 0 0 -10.4 -7.85 0c-3.95,0 -6.51,-3.23 -5.69,-7.17l14.98 -72.39c0.82,-3.94 4.71,-7.17 8.66,-7.17z"/>
  <circle class="fil9" transform="matrix(0.883768 -0 -0.23887 0.890411 193.665 168.781)" r="16.16"/>
  <circle class="fil9" transform="matrix(0.883768 -0 -0.23887 0.890411 88.3284 168.781)" r="16.16"/>
  <path class="fil10" style="mask:url(#id9)" d="M112.76 122.88l23.87 -23.21c0.97,-0.94 2.27,-1.47 3.62,-1.47 2.87,0 5.2,2.33 5.2,5.2 0,1.41 -0.57,2.76 -1.58,3.74l-29.25 28.12c-1.16,1.12 -3.02,1.1 -4.16,-0.05l-12.21 -12.21c-0.81,-0.94 -1.25,-2.14 -1.25,-3.38 0,-2.86 2.32,-5.18 5.18,-5.18 1.24,0 2.44,0.44 3.38,1.24l7.2 7.2z"/>
  <circle class="fil11" transform="matrix(0.380433 -0 -0.102826 0.383293 88.3285 168.781)" r="16.16"/>
  <circle class="fil11" transform="matrix(0.380433 -0 -0.102826 0.383293 193.665 168.781)" r="16.16"/>
  <path class="fil12" d="M58.22 168.99l13.1 0c0.01,-0.07 0.03,-0.14 0.05,-0.21 1.01,-3.77 3.15,-7.25 5.96,-10.07l-15.26 0c-1.98,0 -4.21,1.62 -4.95,3.6l-1.15 3.08c-0.74,1.98 0.27,3.6 2.25,3.6zm47.01 0l71.42 0c0.02,-0.07 0.04,-0.14 0.06,-0.21 1.01,-3.77 3.15,-7.25 5.96,-10.07l-77.94 0c1.29,2.82 1.57,6.3 0.56,10.07 -0.02,0.07 -0.04,0.14 -0.06,0.21zm105.34 0l14.79 0c1.98,0 4.21,-1.62 4.95,-3.6l1.16 -3.08c0.74,-1.98 -0.28,-3.6 -2.26,-3.6l-19.14 0c1.29,2.82 1.57,6.3 0.56,10.07 -0.02,0.07 -0.04,0.14 -0.06,0.21z"/>
  <path class="fil13" d="M112.68 119.71l23.87 -23.2c0.97,-0.95 2.27,-1.47 3.62,-1.47 2.87,0 5.2,2.32 5.2,5.19 0,1.41 -0.57,2.76 -1.58,3.74l-29.25 28.12c-1.16,1.12 -3.02,1.1 -4.16,-0.04l-12.21 -12.22c-0.81,-0.94 -1.25,-2.14 -1.25,-3.37 0,-2.87 2.32,-5.19 5.18,-5.19 1.24,0 2.44,0.44 3.38,1.25l7.2 7.19z"/>
 </g>
</svg>
