<?xml version="1.0" encoding="UTF-8"?>
<!DOCTYPE svg PUBLIC "-//W3C//DTD SVG 1.1//EN" "http://www.w3.org/Graphics/SVG/1.1/DTD/svg11.dtd">
<!-- Creator: CorelDRAW 2019 (64-Bit) -->
<svg xmlns="http://www.w3.org/2000/svg" xml:space="preserve" width="250px" height="250px" version="1.1" style="shape-rendering:geometricPrecision; text-rendering:geometricPrecision; image-rendering:optimizeQuality; fill-rule:evenodd; clip-rule:evenodd"
viewBox="0 0 250 250"
 xmlns:xlink="http://www.w3.org/1999/xlink">
 <defs>
  <style type="text/css">
   <![CDATA[
    .str0 {stroke:black;stroke-width:0.24;stroke-miterlimit:22.9256;stroke-opacity:0.200000}
    .fil2 {fill:none}
    .fil4 {fill:#262B3E}
    .fil3 {fill:#4A7AE5}
    .fil6 {fill:#DAECEE}
    .fil8 {fill:#FFC116}
    .fil5 {fill:#394F96;fill-rule:nonzero}
    .fil9 {fill:#EFAE13;fill-rule:nonzero}
    .fil11 {fill:white;fill-rule:nonzero}
    .fil1 {fill:black;fill-opacity:0.200000}
    .fil7 {fill:#000821;fill-opacity:0.200000}
    .fil0 {fill:url(#id5)}
    .fil10 {fill:url(#id6)}
   ]]>
  </style>
   <clipPath id="id0">
    <path d="M31.54 0.08l186.75 0c17.39,0 31.63,14.24 31.63,31.63l0 186.75c0,17.39 -14.24,31.62 -31.63,31.62l-186.75 0c-17.39,0 -31.62,-14.23 -31.62,-31.62l0 -186.75c0,-17.39 14.23,-31.63 31.62,-31.63z"/>
   </clipPath>
    <clipPath id="id1">
     <path d="M47.78 152.45l123.16 -32.05c3.55,-0.92 5.7,-4.58 4.77,-8.14l-18.91 -72.68c-0.92,-3.55 -4.59,-5.7 -8.14,-4.78l-123.15 32.05c-3.56,0.92 -5.71,4.59 -4.78,8.14l18.91 72.68c0.93,3.56 4.59,5.71 8.14,4.78z"/>
    </clipPath>
    <clipPath id="id2">
     <path d="M63.85 166.82l124.29 27.27c3.59,0.79 7.17,-1.5 7.95,-5.09l16.1 -73.35c0.79,-3.59 -1.5,-7.17 -5.09,-7.95l-124.3 -27.28c-3.58,-0.78 -7.16,1.51 -7.95,5.09l-16.09 73.36c-0.79,3.58 1.5,7.16 5.09,7.95z"/>
    </clipPath>
    <clipPath id="id3">
     <path d="M83.81 101.15l17.12 3.75c2.01,0.44 3.3,2.46 2.86,4.47l-2.46 11.21c-0.44,2.02 -2.45,3.31 -4.47,2.86l-17.12 -3.75c-2.02,-0.44 -3.3,-2.46 -2.86,-4.47l2.46 -11.21c0.44,-2.02 2.45,-3.31 4.47,-2.86z"/>
    </clipPath>
    <clipPath id="id4">
     <path d="M211.4 170.16l1.87 0.47 0 16.78c0,9.45 -4.1,17.41 -11.17,23.52 -2.33,2.02 -4.94,3.79 -7.67,5.24 -0.52,0.27 -2.67,1.38 -3.64,1.65l-0.54 0.2 -0.34 0.11 -0.9 -0.31c-3.91,-1.49 -8.19,-4.25 -11.32,-6.96 -7.05,-6.09 -11.14,-14.02 -11.14,-23.45l0 -16.78 1.87 -0.47 21.49 -9.57 21.49 9.57z"/>
    </clipPath>
  <linearGradient id="id5" gradientUnits="userSpaceOnUse" x1="-0.08" y1="125.08" x2="249.92" y2="125.08">
   <stop offset="0" style="stop-opacity:1; stop-color:#D7D2CE"/>
   <stop offset="1" style="stop-opacity:1; stop-color:#C9BBB3"/>
  </linearGradient>
  <linearGradient id="id6" gradientUnits="userSpaceOnUse" x1="168.26" y1="180.09" x2="212.43" y2="208.97">
   <stop offset="0" style="stop-opacity:1; stop-color:#24DE90"/>
   <stop offset="1" style="stop-opacity:1; stop-color:#005736"/>
  </linearGradient>
 </defs>
 <g id="Layer_x0020_1">
  <metadata id="CorelCorpID_0Corel-Layer"/>
  <path class="fil0" d="M31.54 0.08l186.75 0c17.39,0 31.63,14.24 31.63,31.63l0 186.75c0,17.39 -14.24,31.62 -31.63,31.62l-186.75 0c-17.39,0 -31.62,-14.23 -31.62,-31.62l0 -186.75c0,-17.39 14.23,-31.63 31.62,-31.63z"/>
  <g style="clip-path:url(#id0)">
   <g id="_2292916479216">
    <path id="1" class="fil1 str0" d="M44.6 158.72l9.4 -2.44 -1.38 6.29c-0.79,3.58 1.5,7.16 5.09,7.95l124.3 27.27c3.58,0.79 7.16,-1.5 7.95,-5.09l16.09 -73.35c0.79,-3.59 -1.5,-7.17 -5.09,-7.95l-32.12 -7.05 -15.22 -58.5c-0.93,-3.55 -4.59,-5.7 -8.15,-4.77l-123.15 32.04c-3.55,0.93 -5.7,4.59 -4.78,8.14l18.92 72.68c0.92,3.56 4.58,5.71 8.14,4.78z"/>
   </g>
  </g>
  <path class="fil2" d="M31.54 0.08l186.75 0c17.39,0 31.63,14.24 31.63,31.63l0 186.75c0,17.39 -14.24,31.62 -31.63,31.62l-186.75 0c-17.39,0 -31.62,-14.23 -31.62,-31.62l0 -186.75c0,-17.39 14.23,-31.63 31.62,-31.63z"/>
  <g id="_2292916467504">
   <path class="fil3" d="M47.78 152.45l123.16 -32.05c3.55,-0.92 5.7,-4.58 4.77,-8.14l-18.91 -72.68c-0.92,-3.55 -4.59,-5.7 -8.14,-4.78l-123.15 32.05c-3.56,0.92 -5.71,4.59 -4.78,8.14l18.91 72.68c0.93,3.56 4.59,5.71 8.14,4.78z"/>
   <g style="clip-path:url(#id1)">
    <g>
     <rect class="fil4" transform="matrix(1.04487 -0.271894 0.250185 0.961442 16.4987 82.9625)" width="141.53" height="23.94"/>
     <path class="fil5" d="M52.46 126.72l84.13 -21.89c1.08,-0.29 2.08,-0.08 2.22,0.45 0.14,0.54 -0.63,1.2 -1.72,1.49l-84.12 21.89c-1.09,0.28 -2.09,0.07 -2.23,-0.46 -0.14,-0.53 0.64,-1.2 1.72,-1.48z"/>
     <path class="fil5" d="M53.64 135.38l41.27 -10.74c0.53,-0.14 1.08,0.18 1.22,0.72 0.14,0.53 -0.18,1.08 -0.72,1.22l-41.26 10.74c-0.54,0.14 -1.08,-0.19 -1.22,-0.72 -0.14,-0.53 0.18,-1.08 0.71,-1.22z"/>
     <rect class="fil6" transform="matrix(0.961442 -0.250185 0.250185 0.961442 58.7095 105.606)" width="82.73" height="11.76"/>
     <path class="fil7" d="M25.97 160.5l13.01 -14.29c6.69,-3.54 13.43,-6.93 20.09,-10.3l12.12 -55.82c0.78,-3.58 4.36,-5.87 7.95,-5.09l48.25 10.59c10,-15.1 15.37,-34.24 13.46,-60.18l39.26 10.05 26.67 79.28 -180.81 45.76z"/>
    </g>
   </g>
   <path class="fil2" d="M47.78 152.45l123.16 -32.05c3.55,-0.92 5.7,-4.58 4.77,-8.14l-18.91 -72.68c-0.92,-3.55 -4.59,-5.7 -8.14,-4.78l-123.15 32.05c-3.56,0.92 -5.71,4.59 -4.78,8.14l18.91 72.68c0.93,3.56 4.59,5.71 8.14,4.78z"/>
   <path class="fil3" d="M63.85 166.82l124.29 27.27c3.59,0.79 7.17,-1.5 7.95,-5.09l16.1 -73.35c0.79,-3.59 -1.5,-7.17 -5.09,-7.95l-124.3 -27.28c-3.58,-0.78 -7.16,1.51 -7.95,5.09l-16.09 73.36c-0.79,3.58 1.5,7.16 5.09,7.95z"/>
   <g style="clip-path:url(#id2)">
    <g>
     <path id="1" class="fil7" d="M41.68 167.72l18.07 -6.84c58.93,-0.94 116.5,7.83 145.57,-61.48l30.43 26.76 -12.18 82.76 -181.89 -41.2z"/>
    </g>
   </g>
   <path class="fil2" d="M63.85 166.82l124.29 27.27c3.59,0.79 7.17,-1.5 7.95,-5.09l16.1 -73.35c0.79,-3.59 -1.5,-7.17 -5.09,-7.95l-124.3 -27.28c-3.58,-0.78 -7.16,1.51 -7.95,5.09l-16.09 73.36c-0.79,3.58 1.5,7.16 5.09,7.95z"/>
   <path class="fil8" d="M83.81 101.15l17.12 3.75c2.01,0.44 3.3,2.46 2.86,4.47l-2.46 11.21c-0.44,2.02 -2.45,3.31 -4.47,2.86l-17.12 -3.75c-2.02,-0.44 -3.3,-2.46 -2.86,-4.47l2.46 -11.21c0.44,-2.02 2.45,-3.31 4.47,-2.86z"/>
   <g style="clip-path:url(#id3)">
    <g>
     <path id="1" class="fil9" d="M77.43 112.23l8.71 1.91 1.26 -5.74 -8.66 -1.9 0.13 -0.59 8.66 1.9 0.17 -0.79c0.21,-0.94 0.78,-1.72 1.54,-2.2 0.69,-0.45 1.54,-0.65 2.4,-0.52l0.31 -1.41 0.6 0.13 -0.32 1.42c0.79,0.26 1.44,0.78 1.87,1.44 0.48,0.76 0.68,1.71 0.47,2.65l-0.17 0.79 9.02 1.98 -0.13 0.59 -9.02 -1.98 -1.26 5.74 9.12 2 -0.13 0.59 -9.12 -2 -0.09 0.42c-0.21,0.95 -0.79,1.72 -1.54,2.21 -0.67,0.43 -1.48,0.63 -2.3,0.54l-0.49 2.24 -0.6 -0.13 0.49 -2.24c-0.83,-0.24 -1.51,-0.78 -1.96,-1.48 -0.48,-0.75 -0.68,-1.7 -0.48,-2.64l0.1 -0.43 -8.71 -1.91 0.13 -0.59zm14.33 -7.29c-0.78,-0.18 -1.56,-0.01 -2.19,0.39 -0.63,0.4 -1.11,1.04 -1.28,1.82l-1.78 8.14c-0.17,0.78 -0.01,1.56 0.39,2.19 0.41,0.63 1.05,1.1 1.83,1.27 0.78,0.18 1.56,0.01 2.19,-0.39 0.63,-0.4 1.1,-1.04 1.27,-1.83l1.79 -8.13c0.17,-0.78 0.01,-1.56 -0.4,-2.19 -0.4,-0.63 -1.04,-1.1 -1.82,-1.27z"/>
    </g>
   </g>
   <path class="fil2" d="M83.81 101.15l17.12 3.75c2.01,0.44 3.3,2.46 2.86,4.47l-2.46 11.21c-0.44,2.02 -2.45,3.31 -4.47,2.86l-17.12 -3.75c-2.02,-0.44 -3.3,-2.46 -2.86,-4.47l2.46 -11.21c0.44,-2.02 2.45,-3.31 4.47,-2.86z"/>
   <path class="fil5" d="M76.38 131.13l0.82 1.37 1.32 -0.9c0.26,-0.18 0.62,-0.11 0.8,0.16 0.19,0.28 0.16,0.64 -0.13,0.83l-1.37 0.93 0.85 1.42c0.17,0.27 0.08,0.63 -0.19,0.8 -0.29,0.17 -0.65,0.12 -0.83,-0.18l-0.83 -1.36 -1.31 0.89c-0.27,0.18 -0.63,0.11 -0.81,-0.16 -0.19,-0.28 -0.16,-0.64 0.14,-0.83l1.36 -0.93 -0.85 -1.42c-0.17,-0.27 -0.08,-0.63 0.2,-0.79 0.29,-0.18 0.64,-0.13 0.83,0.17zm5.86 1.29l0.83 1.36 1.31 -0.89c0.27,-0.18 0.63,-0.11 0.81,0.16 0.19,0.28 0.16,0.64 -0.13,0.83l-1.37 0.93 0.85 1.42c0.17,0.27 0.08,0.63 -0.19,0.79 -0.3,0.18 -0.65,0.13 -0.83,-0.17l-0.83 -1.37 -1.31 0.9c-0.27,0.18 -0.63,0.11 -0.81,-0.16 -0.19,-0.28 -0.16,-0.64 0.13,-0.84l1.37 -0.92 -0.85 -1.42c-0.17,-0.27 -0.08,-0.63 0.19,-0.8 0.3,-0.17 0.65,-0.12 0.83,0.18zm5.87 1.29l0.82 1.36 1.32 -0.89c0.27,-0.18 0.63,-0.11 0.81,0.15 0.19,0.28 0.16,0.64 -0.14,0.84l-1.36 0.93 0.85 1.41c0.17,0.28 0.08,0.64 -0.2,0.8 -0.29,0.18 -0.64,0.13 -0.83,-0.18l-0.82 -1.36 -1.32 0.89c-0.26,0.19 -0.62,0.12 -0.8,-0.15 -0.19,-0.28 -0.16,-0.64 0.13,-0.84l1.37 -0.93 -0.85 -1.41c-0.17,-0.28 -0.08,-0.63 0.19,-0.8 0.29,-0.18 0.65,-0.12 0.83,0.18zm5.87 1.29l0.82 1.36 1.32 -0.89c0.27,-0.18 0.63,-0.11 0.81,0.15 0.19,0.28 0.15,0.64 -0.14,0.84l-1.37 0.93 0.86 1.41c0.16,0.28 0.08,0.63 -0.2,0.8 -0.29,0.18 -0.65,0.12 -0.83,-0.18l-0.82 -1.36 -1.32 0.89c-0.26,0.18 -0.62,0.11 -0.8,-0.15 -0.19,-0.28 -0.16,-0.64 0.13,-0.84l1.37 -0.93 -0.86 -1.41c-0.16,-0.28 -0.07,-0.64 0.2,-0.8 0.29,-0.18 0.65,-0.13 0.83,0.18z"/>
   <path class="fil5" d="M104.74 137.36l0.82 1.36 1.32 -0.89c0.27,-0.18 0.63,-0.11 0.81,0.15 0.19,0.28 0.15,0.64 -0.14,0.84l-1.37 0.93 0.86 1.41c0.16,0.28 0.07,0.63 -0.2,0.8 -0.29,0.18 -0.65,0.13 -0.83,-0.18l-0.82 -1.36 -1.32 0.89c-0.26,0.18 -0.63,0.11 -0.81,-0.15 -0.19,-0.28 -0.15,-0.64 0.14,-0.84l1.37 -0.93 -0.86 -1.41c-0.16,-0.28 -0.07,-0.63 0.2,-0.8 0.29,-0.18 0.65,-0.13 0.83,0.18zm5.87 1.28l0.82 1.37 1.32 -0.9c0.26,-0.18 0.62,-0.11 0.8,0.16 0.19,0.28 0.16,0.64 -0.13,0.84l-1.37 0.92 0.86 1.42c0.16,0.27 0.07,0.63 -0.2,0.8 -0.29,0.17 -0.65,0.12 -0.83,-0.18l-0.82 -1.36 -1.32 0.89c-0.27,0.18 -0.63,0.11 -0.81,-0.15 -0.19,-0.29 -0.15,-0.64 0.14,-0.84l1.37 -0.93 -0.86 -1.42c-0.16,-0.27 -0.07,-0.63 0.2,-0.79 0.29,-0.18 0.65,-0.13 0.83,0.17zm5.87 1.29l0.82 1.36 1.32 -0.89c0.26,-0.18 0.62,-0.11 0.8,0.16 0.19,0.28 0.16,0.64 -0.13,0.83l-1.37 0.93 0.85 1.42c0.17,0.27 0.08,0.63 -0.19,0.8 -0.29,0.17 -0.65,0.12 -0.83,-0.18l-0.82 -1.36 -1.32 0.89c-0.27,0.18 -0.63,0.11 -0.81,-0.16 -0.19,-0.28 -0.16,-0.64 0.14,-0.83l1.37 -0.93 -0.86 -1.42c-0.16,-0.27 -0.08,-0.63 0.2,-0.79 0.29,-0.18 0.64,-0.13 0.83,0.17zm5.86 1.29l0.83 1.36 1.31 -0.89c0.27,-0.18 0.63,-0.11 0.81,0.16 0.19,0.28 0.16,0.63 -0.13,0.83l-1.37 0.93 0.85 1.42c0.17,0.27 0.08,0.63 -0.19,0.79 -0.3,0.18 -0.65,0.13 -0.83,-0.17l-0.83 -1.37 -1.31 0.9c-0.27,0.18 -0.63,0.11 -0.81,-0.16 -0.19,-0.28 -0.16,-0.64 0.13,-0.84l1.37 -0.92 -0.85 -1.42c-0.17,-0.27 -0.08,-0.63 0.2,-0.8 0.29,-0.17 0.64,-0.12 0.82,0.18z"/>
   <path class="fil5" d="M133.1 143.58l0.83 1.36 1.31 -0.89c0.27,-0.18 0.63,-0.11 0.81,0.16 0.19,0.28 0.16,0.64 -0.13,0.83l-1.37 0.93 0.85 1.42c0.17,0.27 0.08,0.63 -0.19,0.79 -0.3,0.18 -0.65,0.13 -0.83,-0.17l-0.83 -1.37 -1.31 0.9c-0.27,0.18 -0.63,0.11 -0.81,-0.16 -0.19,-0.28 -0.16,-0.64 0.13,-0.83l1.37 -0.93 -0.85 -1.42c-0.17,-0.27 -0.08,-0.63 0.19,-0.8 0.3,-0.17 0.65,-0.12 0.83,0.18zm5.87 1.29l0.82 1.36 1.32 -0.89c0.27,-0.18 0.63,-0.11 0.81,0.15 0.19,0.28 0.16,0.64 -0.14,0.84l-1.37 0.93 0.86 1.41c0.17,0.28 0.08,0.64 -0.2,0.8 -0.29,0.18 -0.64,0.13 -0.83,-0.18l-0.82 -1.36 -1.32 0.9c-0.26,0.18 -0.62,0.11 -0.8,-0.16 -0.19,-0.28 -0.16,-0.64 0.13,-0.84l1.37 -0.93 -0.85 -1.41c-0.17,-0.28 -0.08,-0.63 0.19,-0.8 0.29,-0.18 0.65,-0.12 0.83,0.18zm5.87 1.29l0.82 1.36 1.32 -0.89c0.27,-0.18 0.63,-0.11 0.81,0.15 0.19,0.28 0.15,0.64 -0.14,0.84l-1.37 0.93 0.86 1.41c0.16,0.28 0.08,0.63 -0.2,0.8 -0.29,0.18 -0.65,0.12 -0.83,-0.18l-0.82 -1.36 -1.32 0.89c-0.26,0.18 -0.62,0.11 -0.8,-0.15 -0.19,-0.28 -0.16,-0.64 0.13,-0.84l1.37 -0.93 -0.86 -1.41c-0.16,-0.28 -0.07,-0.64 0.2,-0.8 0.29,-0.18 0.65,-0.13 0.83,0.18zm5.87 1.28l0.82 1.37 1.32 -0.9c0.26,-0.18 0.63,-0.11 0.81,0.16 0.19,0.28 0.15,0.64 -0.14,0.84l-1.37 0.92 0.86 1.42c0.16,0.27 0.07,0.63 -0.2,0.8 -0.29,0.17 -0.65,0.12 -0.83,-0.18l-0.82 -1.36 -1.32 0.89c-0.27,0.18 -0.63,0.11 -0.81,-0.16 -0.19,-0.28 -0.15,-0.63 0.14,-0.83l1.37 -0.93 -0.86 -1.42c-0.16,-0.27 -0.07,-0.63 0.2,-0.79 0.29,-0.18 0.65,-0.13 0.83,0.17z"/>
   <path class="fil5" d="M161.47 149.8l0.82 1.37 1.32 -0.9c0.26,-0.18 0.62,-0.11 0.8,0.16 0.19,0.28 0.16,0.64 -0.13,0.84l-1.37 0.92 0.86 1.42c0.16,0.27 0.07,0.63 -0.2,0.8 -0.29,0.17 -0.65,0.12 -0.83,-0.18l-0.82 -1.36 -1.32 0.89c-0.27,0.18 -0.63,0.11 -0.81,-0.15 -0.19,-0.29 -0.15,-0.64 0.14,-0.84l1.37 -0.93 -0.86 -1.42c-0.16,-0.27 -0.08,-0.63 0.2,-0.79 0.29,-0.18 0.65,-0.13 0.83,0.17zm5.87 1.29l0.82 1.37 1.32 -0.9c0.26,-0.18 0.62,-0.11 0.8,0.16 0.19,0.28 0.16,0.64 -0.13,0.83l-1.37 0.93 0.85 1.42c0.17,0.27 0.08,0.63 -0.19,0.8 -0.29,0.17 -0.65,0.12 -0.83,-0.18l-0.82 -1.36 -1.32 0.89c-0.27,0.18 -0.63,0.11 -0.81,-0.16 -0.19,-0.28 -0.16,-0.64 0.14,-0.83l1.37 -0.93 -0.86 -1.42c-0.16,-0.27 -0.08,-0.63 0.2,-0.79 0.29,-0.18 0.64,-0.13 0.83,0.17zm5.86 1.29l0.83 1.36 1.31 -0.89c0.27,-0.18 0.63,-0.11 0.81,0.16 0.19,0.28 0.16,0.63 -0.13,0.83l-1.37 0.93 0.85 1.42c0.17,0.27 0.08,0.63 -0.19,0.79 -0.3,0.18 -0.65,0.13 -0.83,-0.17l-0.83 -1.37 -1.31 0.9c-0.27,0.18 -0.63,0.11 -0.81,-0.16 -0.19,-0.28 -0.16,-0.64 0.13,-0.84l1.37 -0.92 -0.85 -1.42c-0.17,-0.27 -0.08,-0.63 0.19,-0.8 0.3,-0.17 0.65,-0.12 0.83,0.18zm5.87 1.29l0.83 1.36 1.31 -0.89c0.27,-0.18 0.63,-0.11 0.81,0.15 0.19,0.28 0.16,0.64 -0.13,0.84l-1.37 0.93 0.85 1.41c0.17,0.28 0.08,0.64 -0.2,0.8 -0.29,0.18 -0.64,0.13 -0.83,-0.18l-0.82 -1.36 -1.32 0.89c-0.26,0.18 -0.62,0.11 -0.8,-0.15 -0.19,-0.28 -0.16,-0.64 0.13,-0.84l1.37 -0.93 -0.85 -1.41c-0.17,-0.28 -0.08,-0.63 0.19,-0.8 0.29,-0.18 0.65,-0.12 0.83,0.18z"/>
   <path class="fil5" d="M72.88 144.92l41.65 9.14c0.54,0.12 0.88,0.66 0.76,1.19 -0.12,0.54 -0.65,0.89 -1.19,0.77l-41.65 -9.14c-0.54,-0.12 -0.88,-0.65 -0.76,-1.19 0.12,-0.54 0.65,-0.89 1.19,-0.77z"/>
   <path class="fil5" d="M168.66 121.9l20.14 4.42c0.53,0.12 0.88,0.65 0.76,1.19 -0.12,0.54 -0.66,0.88 -1.19,0.77l-20.14 -4.42c-0.53,-0.12 -0.88,-0.66 -0.76,-1.19 0.12,-0.54 0.65,-0.89 1.19,-0.77z"/>
   <path class="fil10" d="M211.4 170.16l1.87 0.47 0 16.78c0,9.45 -4.1,17.41 -11.17,23.52 -2.33,2.02 -4.94,3.79 -7.67,5.24 -0.52,0.27 -2.67,1.38 -3.64,1.65l-0.54 0.2 -0.34 0.11 -0.9 -0.31c-3.91,-1.49 -8.19,-4.25 -11.32,-6.96 -7.05,-6.09 -11.14,-14.02 -11.14,-23.45l0 -16.78 1.87 -0.47 21.49 -9.57 21.49 9.57z"/>
   <g style="clip-path:url(#id4)">
    <g>
     <path id="1" class="fil11" d="M185.64 191.96l12.05 -11.72c0.49,-0.48 1.15,-0.74 1.83,-0.74 1.45,0 2.62,1.17 2.62,2.62 0,0.71 -0.28,1.4 -0.8,1.89l-14.76 14.2c-0.59,0.56 -1.53,0.55 -2.11,-0.02l-6.16 -6.17c-0.41,-0.48 -0.63,-1.08 -0.63,-1.71 0,-1.44 1.17,-2.62 2.62,-2.62 0.62,0 1.23,0.23 1.7,0.63l3.64 3.64z"/>
     <path class="fil1" d="M201.28 157.12c-2.71,11.89 -0.83,47.77 -34.63,66.54l59.31 -0.2 -0.27 -54.66 -24.41 -11.68z"/>
    </g>
   </g>
   <path class="fil2" d="M211.4 170.16l1.87 0.47 0 16.78c0,9.45 -4.1,17.41 -11.17,23.52 -2.33,2.02 -4.94,3.79 -7.67,5.24 -0.52,0.27 -2.67,1.38 -3.64,1.65l-0.54 0.2 -0.34 0.11 -0.9 -0.31c-3.91,-1.49 -8.19,-4.25 -11.32,-6.96 -7.05,-6.09 -11.14,-14.02 -11.14,-23.45l0 -16.78 1.87 -0.47 21.49 -9.57 21.49 9.57z"/>
  </g>
 </g>
</svg>
