<?xml version="1.0" encoding="UTF-8"?>
<!DOCTYPE svg PUBLIC "-//W3C//DTD SVG 1.1//EN" "http://www.w3.org/Graphics/SVG/1.1/DTD/svg11.dtd">
<!-- Creator: CorelDRAW 2019 (64-Bit) -->
<svg xmlns="http://www.w3.org/2000/svg" xml:space="preserve" width="250px" height="250px" version="1.1" style="shape-rendering:geometricPrecision; text-rendering:geometricPrecision; image-rendering:optimizeQuality; fill-rule:evenodd; clip-rule:evenodd"
viewBox="0 0 250 250"
 xmlns:xlink="http://www.w3.org/1999/xlink"
 enable-background="new 0 0 100 100">
 <defs>
  <style type="text/css">
   <![CDATA[
    .str0 {stroke:black;stroke-width:0.24;stroke-miterlimit:22.9256}
    .fil2 {fill:none}
    .fil7 {fill:black}
    .fil1 {fill:black}
    .fil5 {fill:white}
    .fil0 {fill:url(#id3)}
    .fil4 {fill:url(#id4)}
    .fil6 {fill:url(#id5)}
    .fil3 {fill:url(#id6)}
   ]]>
  </style>
   <clipPath id="id0">
    <path d="M31.54 0.08l186.75 0c17.39,0 31.63,14.24 31.63,31.63l0 186.75c0,17.39 -14.24,31.62 -31.63,31.62l-186.75 0c-17.39,0 -31.62,-14.23 -31.62,-31.62l0 -186.75c0,-17.39 14.23,-31.63 31.62,-31.63z"/>
   </clipPath>
     <mask id="id1">
  <linearGradient id="id2" gradientUnits="userSpaceOnUse" x1="231.37" y1="116.2" x2="136.5" y2="267.44">
   <stop offset="0" style="stop-opacity:0.301961; stop-color:white"/>
   <stop offset="1" style="stop-opacity:0.101961; stop-color:white"/>
  </linearGradient>
      <rect style="fill:url(#id2)" x="82.92" y="45.88" width="202.82" height="243.26"/>
     </mask>
  <linearGradient id="id3" gradientUnits="userSpaceOnUse" x1="-0.08" y1="125.08" x2="249.92" y2="125.08">
   <stop offset="0" style="stop-opacity:1; stop-color:#D7D2CE"/>
   <stop offset="1" style="stop-opacity:1; stop-color:#C9BBB3"/>
  </linearGradient>
  <linearGradient id="id4" gradientUnits="userSpaceOnUse" x1="114.45" y1="142.29" x2="134.3" y2="199.34">
   <stop offset="0" style="stop-opacity:1; stop-color:#FFA000"/>
   <stop offset="1" style="stop-opacity:1; stop-color:#FF0062"/>
  </linearGradient>
  <linearGradient id="id5" gradientUnits="userSpaceOnUse" x1="101.79" y1="109.91" x2="147.24" y2="109.91">
   <stop offset="0" style="stop-opacity:1; stop-color:#FFCB7C"/>
   <stop offset="1" style="stop-opacity:1; stop-color:#D6A400"/>
  </linearGradient>
  <linearGradient id="id6" gradientUnits="userSpaceOnUse" x1="86.02" y1="69.21" x2="185.48" y2="170.23">
   <stop offset="0" style="stop-opacity:1; stop-color:#00B2FF"/>
   <stop offset="1" style="stop-opacity:1; stop-color:#0043E0"/>
  </linearGradient>
 </defs>
 <g id="Layer_x0020_1">
  <metadata id="CorelCorpID_0Corel-Layer"/>
  <path class="fil0" d="M31.54 0.08l186.75 0c17.39,0 31.63,14.24 31.63,31.63l0 186.75c0,17.39 -14.24,31.62 -31.63,31.62l-186.75 0c-17.39,0 -31.62,-14.23 -31.62,-31.62l0 -186.75c0,-17.39 14.23,-31.63 31.62,-31.63z"/>
  <g style="clip-path:url(#id0)">
   <g id="_2292658235168">
    <polygon id="1" class="fil1 str0" style="mask:url(#id1)" points="83.04,203.03 252.09,289.02 285.62,116.15 136.17,46 "/>
   </g>
  </g>
  <path class="fil2" d="M31.54 0.08l186.75 0c17.39,0 31.63,14.24 31.63,31.63l0 186.75c0,17.39 -14.24,31.62 -31.63,31.62l-186.75 0c-17.39,0 -31.62,-14.23 -31.62,-31.62l0 -186.75c0,-17.39 14.23,-31.63 31.62,-31.63z"/>
  <polygon class="fil3" points="125.06,164.54 111.95,168.27 101.95,159.55 88.53,157.22 83.3,145.03 72.21,137.11 72.79,123.86 66.25,111.9 72.51,100.22 71.8,86.61 82.52,78.8 87.78,66.23 100.83,63.85 111.02,54.81 123.81,58.32 136.92,54.59 146.92,63.31 160.35,65.64 165.58,77.83 176.66,85.75 176.08,99 182.63,110.96 176.36,122.64 177.07,136.25 166.35,144.06 161.09,156.63 148.04,159.01 137.85,168.05 "/>
  <path class="fil4" d="M78.45 174.18l-19.2 -7.39 18.54 -18.54 6.03 14.06 16.98 2.95 7.04 6.13 -22 21.99 -7.39 -19.2zm92.7 -0.27l-7.06 18.35 -21.09 -21.1 7.04 -6.24 15.81 -2.89 5.56 -13.27 18.09 18.09 -18.35 7.06z"/>
  <path class="fil5" d="M108.25 152.25c-21.65,-8.89 -32.03,-33.72 -23.15,-55.37 8.88,-21.64 33.72,-32.03 55.36,-23.14 21.65,8.88 32.03,33.72 23.15,55.36 -8.88,21.64 -33.72,32.03 -55.36,23.15z"/>
  <polygon class="fil6" points="138.91,131.25 124.87,125.91 110.82,131.61 111.55,116.61 101.79,105.02 116.29,101.08 124.3,88.21 132.52,100.78 147.24,104.42 137.82,116.13 "/>
  <path class="fil7" d="M169.49 112.27c0,-24.81 -20.19,-45 -45,-45 -6.1,0 -11.92,1.22 -17.23,3.44 -1.05,0.43 -1.75,1.29 -1.97,2.4 -0.24,1.21 0.14,2.21 1,3.06 0.96,0.97 2.34,1.24 3.59,0.72 4.51,-1.87 9.44,-2.9 14.62,-2.9 21.1,0 38.27,17.17 38.27,38.28 0,21.11 -17.17,38.28 -38.27,38.28 -21.11,0 -38.28,-17.17 -38.28,-38.28 0,-4.87 0.91,-9.53 2.58,-13.81 0.63,-1.63 -0.06,-3.26 -1.54,-4.12 -1.76,-1.01 -3.98,-0.23 -4.72,1.67 -1.96,5.04 -3.04,10.53 -3.04,16.26 0,24.81 20.18,44.99 44.99,44.99 24.81,0 45,-20.18 45,-44.99z"/>
  <path class="fil7" d="M136.37 95.28l-10.57 -16.15c-0.37,-0.56 -0.94,-0.87 -1.61,-0.86 -0.67,0.01 -1.24,0.33 -1.6,0.9l-10.26 16.49 -18.62 5.06c-0.65,0.17 -1.12,0.63 -1.32,1.27 -0.2,0.64 -0.07,1.28 0.36,1.79l12.51 14.86 -0.94 19.27c-0.03,0.67 0.25,1.26 0.8,1.65 0.55,0.38 1.2,0.46 1.82,0.21l17.99 -7.31 18.04 6.85c0.63,0.24 1.28,0.15 1.81,-0.25 0.54,-0.4 0.81,-1 0.77,-1.67l-1.39 -19.37 12.09 -15.04c0.42,-0.52 0.53,-1.16 0.32,-1.8 -0.22,-0.63 -0.7,-1.08 -1.35,-1.24l-18.85 -4.66zm1.94 35.07l-13.46 -5.11 -13.45 5.46 0.7 -14.37 -9.36 -11.11 13.89 -3.77 7.68 -12.33 7.88 12.04 14.09 3.49 -9.01 11.22 1.04 14.48z"/>
  <path class="fil7" d="M175.84 145.45l8.13 -5.92 -0.8 -15.37 7.1 -13.24 -7.4 -13.5 0.66 -15.01 -12.52 -8.95 -5.93 -13.82 -15.16 -2.63 -11.33 -9.87 -14.81 4.2 -14.49 -3.98 -11.51 10.22 -14.79 2.7 -5.94 14.2 -12.15 8.85 0.81 15.37 -7.1 13.24 7.39 13.5 -0.65 15.01 8.02 5.74 -23.58 23.59 24.01 9.24 9.24 24.01 27.33 -27.33 14.72 -4.18 14.23 3.91 27.47 27.47 9.24 -24.01 24.01 -9.24 -24.2 -24.2zm-96.84 28.37l-17.15 -6.6 16.56 -16.56 5.38 12.56 15.16 2.63 6.29 5.48 -19.64 19.64 -6.6 -17.15zm46.06 -9.28l-13.11 3.73 -10 -8.72 -13.42 -2.33 -5.23 -12.19 -11.09 -7.92 0.58 -13.25 -6.54 -11.96 6.26 -11.68 -0.71 -13.61 10.72 -7.81 5.26 -12.57 13.05 -2.38 10.19 -9.04 12.79 3.51 13.11 -3.73 10 8.72 13.43 2.33 5.23 12.19 11.08 7.92 -0.58 13.25 6.55 11.96 -6.27 11.68 0.71 13.61 -10.72 7.81 -5.26 12.57 -13.05 2.38 -10.19 9.04 -12.79 -3.51zm45.77 9.14l-6.6 17.16 -19.72 -19.72 6.59 -5.84 14.78 -2.7 5.19 -12.4 16.91 16.91 -17.15 6.59z"/>
  <circle class="fil1" transform="matrix(0.661615 0.271514 -0.271514 0.661615 94.1798 84.2896)" r="4.57"/>
 </g>
</svg>
